<?xml version="1.0" standalone="no"?>
<!DOCTYPE svg PUBLIC "-//W3C//DTD SVG 20010904//EN"
 "http://www.w3.org/TR/2001/REC-SVG-20010904/DTD/svg10.dtd">
<svg version="1.0" xmlns="http://www.w3.org/2000/svg"
 width="378.000000pt" height="340.000000pt" viewBox="0 0 378.000000 340.000000"
 preserveAspectRatio="xMidYMid meet">

<g transform="translate(0.000000,340.000000) scale(0.100000,-0.100000)"
fill="#000000" stroke="none">
<path d="M2525 3385 c-272 -51 -523 -197 -637 -370 l-41 -63 -37 56 c-96 148
-301 279 -525 338 -85 23 -121 27 -245 27 -160 0 -232 -12 -370 -62 -562 -206
-830 -850 -569 -1374 118 -237 323 -434 694 -666 482 -302 597 -398 748 -624
91 -136 172 -333 217 -528 22 -98 34 -128 45 -117 10 10 24 79 25 119 0 36 89
215 168 339 123 193 302 377 517 532 28 19 138 89 245 153 341 205 517 333
667 484 341 344 438 748 273 1144 -71 170 -215 339 -381 447 -181 117 -352
169 -574 176 -98 2 -164 -1 -220 -11z m355 -201 c287 -73 513 -263 610 -515
41 -108 37 -118 -11 -29 -117 214 -320 367 -574 431 -134 34 -340 32 -480 -5
-168 -44 -348 -141 -459 -248 -36 -35 -57 -48 -71 -44 -11 3 -67 39 -125 81
-258 186 -488 251 -747 211 -198 -30 -349 -111 -494 -264 -95 -101 -140 -169
-175 -270 -50 -144 -50 -367 0 -514 13 -40 23 -75 21 -76 -6 -6 -64 101 -86
158 -53 139 -63 333 -24 475 35 133 109 260 210 361 303 302 787 344 1167 101
31 -20 93 -68 137 -106 86 -76 105 -86 95 -47 -14 57 278 238 471 291 179 50
361 53 535 9z"/>
</g>
</svg>
